# xmcd CD database file
# Copyright (C) 1993-1998 Ti Kan
#
# Track frame offsets:
#	187
#	14287
#	29090
#	46935
#	65775
#	78787
#	92850
#	108197
#	121107
#	139922
#
# Disc length: 2087 seconds
#
# Revision: 1
# Processed by: cddbd v1.4b41PL1 Copyright (c) Steve Scherf et al.
# Submitted via: NotifyCDPlayer(CDDB) 1.51.2
#
DISCID=8008250a
DTITLE=Misc. Artists - Country Classics vol. 11
DYEAR=1900
DGENRE=
TTITLE0=George Strait/Am I Blue
TTITLE1=Reba McEntire/The Last One To Know
TTITLE2=Oak Ridge Boys/True Heart
TTITLE3=Glen Campbell/Still Within The Sound Of My Voice
TTITLE4=Waylon Jennings/If Ole Hank Could Only See Us Now
TTITLE5=Steve Wariner/Lynda
TTITLE6=Patty Loveless/You Saved Me
TTITLE7=John Anderson/It's Hard To Keep This Ship Together
TTITLE8=Lee Greenwood/If There's Any Justice
TTITLE9=Nanci Griffith/Never Mind
EXTD=
EXTT0=
EXTT1=
EXTT2=
EXTT3=
EXTT4=
EXTT5=
EXTT6=
EXTT7=
EXTT8=
EXTT9=
PLAYORDER=
